<svg xmlns="http://www.w3.org/2000/svg" width="24" height="21" fill="none"><path fill="#0A9A67" d="M19.211 0H4.79C3.519 0 2.3.438 1.403 1.217.505 1.997 0 3.054 0 4.157v12.517c0 1.103.505 2.16 1.403 2.94.898.779 2.116 1.217 3.386 1.217H19.21c1.27 0 2.488-.438 3.386-1.218.898-.779 1.403-1.836 1.403-2.939V4.156c0-1.102-.505-2.16-1.403-2.939C21.7.437 20.481 0 19.211 0ZM6.567 5.47h3.525l-.015 2.16-2.445 2.558V6.743H6.553l.014-1.274Zm7.926 10.05-3.48-4.02-.907.986.043 3.021-2.56.013.043-2.886 6.53-7.115 3.093.013-4.62 4.706 4.862 5.27-3.004.012Z"/></svg>